<svg width="770" height="201" viewBox="0 0 770 201" fill="none" xmlns="http://www.w3.org/2000/svg">
<path d="M315.494 142.615L281.426 91.3848V142.609H266.283V68.3351H283.789L315.969 116.808V68.3351H331.112V142.615H315.494ZM340.132 117.377C340.132 102.297 352.53 90.8159 367.858 90.8159C383.094 90.8159 395.307 102.013 395.307 117.093C395.307 132.365 382.909 143.747 367.673 143.747C352.339 143.747 340.132 132.649 340.132 117.383V117.377ZM355.275 117.191C355.275 124.871 360.857 130.182 367.766 130.182C374.674 130.182 380.164 124.876 380.164 117.191C380.164 109.599 374.581 104.283 367.667 104.283C360.764 104.283 355.275 109.599 355.275 117.191ZM431.502 91.9536V106.47C429.516 106.088 427.431 106.088 426.771 106.088C419.672 106.088 414.75 111.021 414.75 120.418V142.609H400.272V91.9591H414.28V99.3543H414.466C417.211 93.5672 422.324 91.3848 427.53 91.3848C428.665 91.3848 430.46 91.6692 431.502 91.9536ZM474.143 142.609V136.161H473.957C469.22 143.085 461.652 143.561 458.241 143.561C443.573 143.561 434.203 130.849 434.203 117.191C434.203 104.381 443.955 91.0074 458.432 91.0074C461.368 91.0074 468.369 91.5762 473.575 97.7407H473.766V65.3923H488.434V142.615H474.137L474.143 142.609ZM474.143 117.191C474.143 109.599 468.56 104.381 461.646 104.381C454.743 104.381 449.161 109.599 449.161 117.191C449.161 124.871 454.743 130.182 461.652 130.182C468.56 130.182 474.148 124.876 474.148 117.191H474.143ZM739.043 99.8794C740.37 99.9236 741.693 99.6996 742.933 99.2209C744.172 98.7422 745.303 98.0184 746.258 97.0927C747.213 96.1669 747.972 95.0582 748.49 93.8323C749.009 92.6065 749.276 91.2886 749.276 89.9572C749.276 88.6257 749.009 87.3079 748.49 86.082C747.972 84.8562 747.213 83.7474 746.258 82.8217C745.303 81.896 744.172 81.1722 742.933 80.6935C741.693 80.2147 740.37 79.9908 739.043 80.035C733.613 80.035 729.182 84.4819 729.182 89.9572C729.182 95.4379 733.613 99.8794 739.043 99.8794ZM739.043 81.8838C743.474 81.8838 746.983 85.5157 746.983 89.9572C746.983 94.3987 743.474 97.9923 739.043 97.9923C734.645 97.9923 731.174 94.3987 731.174 89.9572C731.174 85.5157 734.645 81.8892 739.043 81.8892V81.8838ZM737.526 91.5489H739.19L741.258 95.6239H743.807L741.438 91.0293C742.04 90.7592 742.547 90.3159 742.896 89.7557C743.245 89.1956 743.419 88.5441 743.397 87.8841C743.397 86.0681 742.29 84.2576 739.447 84.2576H735.239V95.6239H737.526V91.5489ZM741.073 87.9224C741.073 88.5897 740.664 89.4375 739.261 89.4375H737.526V86.4018H739.261C740.778 86.4018 741.073 87.2551 741.073 87.9224ZM559.865 89.8204C559.865 73.2469 547.609 64.7578 531.969 64.7578H502.977V142.943H519.118V115.386H531.369C547.707 115.386 559.865 107.1 559.865 89.8204ZM543.62 90.2197C543.62 97.511 537.05 100.306 530.671 100.306H519.118V80.0404H530.572C537.246 80.0404 543.62 82.6331 543.62 90.2197ZM583.172 143.944C588.951 143.944 595.024 141.948 599.013 136.254L599.21 136.352V142.943H613.556V109.895C613.556 95.509 603.892 88.4256 590.642 88.4256C579.488 88.4256 568.525 93.8188 566.735 105.202L580.383 108.297C581.578 103.801 585.163 101.006 589.944 101.006C595.526 101.006 598.315 104.201 598.315 107.597C598.315 109.791 597.021 111.289 594.129 111.289H588.95C578.588 111.289 565.54 114.883 565.54 127.666V128.065C565.54 137.955 573.906 143.944 583.172 143.944ZM587.652 132.561C584.367 132.561 581.18 130.964 581.18 127.168C581.18 122.973 585.764 121.075 588.95 121.075H598.216V122.278C598.216 127.666 594.527 132.561 587.652 132.561ZM646.428 144.141C660.976 144.141 668.048 135.553 668.048 126.474C668.048 114.599 659.017 110.841 649.146 109.517L646.139 109.151C641.839 108.533 639.853 107.499 639.853 104.698C639.853 102.303 642.144 100.306 645.932 100.306C650.412 100.306 652.905 103.003 653.702 106.596L667.148 103.205C666.057 97.2101 659.978 88.3272 646.133 88.3272C634.876 88.3272 625.113 95.7114 625.113 105.398C625.113 116.677 633.097 120.386 642.341 121.966L644.338 122.273C649.915 123.071 652.807 124.072 652.807 127.469C652.807 129.466 651.012 132.064 646.428 132.064C641.25 132.064 638.259 128.667 637.566 124.772L624.017 128.366C624.912 134.055 630.789 144.141 646.428 144.141ZM698.531 144.141C682.891 144.141 677.014 134.06 676.114 128.366L689.663 124.772C690.362 128.667 693.352 132.058 698.531 132.058C703.115 132.058 704.904 129.466 704.904 127.464C704.904 124.286 702.367 123.208 697.45 122.431L694.438 121.966C685.194 120.386 677.211 116.677 677.211 105.398C677.211 95.7169 686.973 88.3272 698.231 88.3272C712.08 88.3272 718.154 97.2101 719.251 103.205L705.805 106.596C705.008 103.003 702.514 100.306 698.034 100.306C694.247 100.306 691.955 102.303 691.955 104.698C691.955 107.499 693.936 108.533 698.236 109.151L700.222 109.391C710.487 110.595 720.146 114.188 720.146 126.468C720.146 135.553 713.073 144.141 698.531 144.141Z" fill="white"/>
<path d="M20.7282 120.302C20.6931 140.865 27.1641 160.91 39.2107 177.555L85.8182 101.53L102.62 130.367L98.0035 108.914L117.828 75.2913L149.877 130.372L145.304 109.127L149.811 101.492L196.446 177.555C208.491 160.911 214.961 140.869 214.929 120.308C214.929 66.4466 171.453 22.7813 117.828 22.7813C64.2034 22.7758 20.7282 66.4412 20.7282 120.302Z" fill="white"/>
</svg>
